<svg height="1214" width="720" xmlns="http://www.w3.org/2000/svg">
<rect height="1214" fill="#555" width="720"></rect>
<text fill="#7f7" font-family="Courier New" font-size="12" xml:space="preserve">
<tspan x="10" y="26">└─┬ ical@0.5.0 </tspan>
<tspan x="10" y="42">  ├─┬ request@2.68.0 </tspan>
<tspan x="10" y="58">  │ ├── aws-sign2@0.6.0 </tspan>
<tspan x="10" y="74">  │ ├─┬ bl@1.0.3 </tspan>
<tspan x="10" y="90">  │ │ └─┬ readable-stream@2.0.6 </tspan>
<tspan x="10" y="106">  │ │   ├── core-util-is@1.0.2 </tspan>
<tspan x="10" y="122">  │ │   ├── inherits@2.0.3 </tspan>
<tspan x="10" y="138">  │ │   ├── isarray@1.0.0 </tspan>
<tspan x="10" y="154">  │ │   ├── process-nextick-args@1.0.7 </tspan>
<tspan x="10" y="170">  │ │   ├── string_decoder@0.10.31 </tspan>
<tspan x="10" y="186">  │ │   └── util-deprecate@1.0.2 </tspan>
<tspan x="10" y="202">  │ ├── caseless@0.11.0 </tspan>
<tspan x="10" y="218">  │ ├─┬ combined-stream@1.0.5 </tspan>
<tspan x="10" y="234">  │ │ └── delayed-stream@1.0.0 </tspan>
<tspan x="10" y="250">  │ ├── extend@3.0.0 </tspan>
<tspan x="10" y="266">  │ ├── forever-agent@0.6.1 </tspan>
<tspan x="10" y="282">  │ ├─┬ form-data@1.0.1 </tspan>
<tspan x="10" y="298">  │ │ └─┬ async@2.3.0 </tspan>
<tspan x="10" y="314">  │ │   └── lodash@4.17.4 </tspan>
<tspan x="10" y="330">  │ ├─┬ har-validator@2.0.6 </tspan>
<tspan x="10" y="346">  │ │ ├─┬ chalk@1.1.3 </tspan>
<tspan x="10" y="362">  │ │ │ ├── ansi-styles@2.2.1 </tspan>
<tspan x="10" y="378">  │ │ │ ├── escape-string-regexp@1.0.5 </tspan>
<tspan x="10" y="394">  │ │ │ ├─┬ has-ansi@2.0.0 </tspan>
<tspan x="10" y="410">  │ │ │ │ └── ansi-regex@2.1.1 </tspan>
<tspan x="10" y="426">  │ │ │ ├── strip-ansi@3.0.1 </tspan>
<tspan x="10" y="442">  │ │ │ └── supports-color@2.0.0 </tspan>
<tspan x="10" y="458">  │ │ ├─┬ commander@2.9.0 </tspan>
<tspan x="10" y="474">  │ │ │ └── graceful-readlink@1.0.1 </tspan>
<tspan x="10" y="490">  │ │ ├─┬ is-my-json-valid@2.16.0 </tspan>
<tspan x="10" y="506">  │ │ │ ├── generate-function@2.0.0 </tspan>
<tspan x="10" y="522">  │ │ │ ├─┬ generate-object-property@1.2.0 </tspan>
<tspan x="10" y="538">  │ │ │ │ └── is-property@1.0.2 </tspan>
<tspan x="10" y="554">  │ │ │ ├── jsonpointer@4.0.1 </tspan>
<tspan x="10" y="570">  │ │ │ └── xtend@4.0.1 </tspan>
<tspan x="10" y="586">  │ │ └─┬ pinkie-promise@2.0.1 </tspan>
<tspan x="10" y="602">  │ │   └── pinkie@2.0.4 </tspan>
<tspan x="10" y="618">  │ ├─┬ hawk@3.1.3 </tspan>
<tspan x="10" y="634">  │ │ ├── boom@2.10.1 </tspan>
<tspan x="10" y="650">  │ │ ├── cryptiles@2.0.5 </tspan>
<tspan x="10" y="666">  │ │ ├── hoek@2.16.3 </tspan>
<tspan x="10" y="682">  │ │ └── sntp@1.0.9 </tspan>
<tspan x="10" y="698">  │ ├─┬ http-signature@1.1.1 </tspan>
<tspan x="10" y="714">  │ │ ├── assert-plus@0.2.0 </tspan>
<tspan x="10" y="730">  │ │ ├─┬ jsprim@1.4.0 </tspan>
<tspan x="10" y="746">  │ │ │ ├── assert-plus@1.0.0 </tspan>
<tspan x="10" y="762">  │ │ │ ├── extsprintf@1.0.2 </tspan>
<tspan x="10" y="778">  │ │ │ ├── json-schema@0.2.3 </tspan>
<tspan x="10" y="794">  │ │ │ └── verror@1.3.6 </tspan>
<tspan x="10" y="810">  │ │ └─┬ sshpk@1.11.0 </tspan>
<tspan x="10" y="826">  │ │   ├── asn1@0.2.3 </tspan>
<tspan x="10" y="842">  │ │   ├── assert-plus@1.0.0 </tspan>
<tspan x="10" y="858">  │ │   ├── bcrypt-pbkdf@1.0.1 </tspan>
<tspan x="10" y="874">  │ │   ├─┬ dashdash@1.14.1 </tspan>
<tspan x="10" y="890">  │ │   │ └── assert-plus@1.0.0 </tspan>
<tspan x="10" y="906">  │ │   ├── ecc-jsbn@0.1.1 </tspan>
<tspan x="10" y="922">  │ │   ├─┬ getpass@0.1.6 </tspan>
<tspan x="10" y="938">  │ │   │ └── assert-plus@1.0.0 </tspan>
<tspan x="10" y="954">  │ │   ├── jodid25519@1.0.2 </tspan>
<tspan x="10" y="970">  │ │   ├── jsbn@0.1.1 </tspan>
<tspan x="10" y="986">  │ │   └── tweetnacl@0.14.5 </tspan>
<tspan x="10" y="1002">  │ ├── is-typedarray@1.0.0 </tspan>
<tspan x="10" y="1018">  │ ├── isstream@0.1.2 </tspan>
<tspan x="10" y="1034">  │ ├── json-stringify-safe@5.0.1 </tspan>
<tspan x="10" y="1050">  │ ├─┬ mime-types@2.1.15 </tspan>
<tspan x="10" y="1066">  │ │ └── mime-db@1.27.0 </tspan>
<tspan x="10" y="1082">  │ ├── node-uuid@1.4.8 </tspan>
<tspan x="10" y="1098">  │ ├── oauth-sign@0.8.2 </tspan>
<tspan x="10" y="1114">  │ ├── qs@6.0.4 </tspan>
<tspan x="10" y="1130">  │ ├── stringstream@0.0.5 </tspan>
<tspan x="10" y="1146">  │ ├── tough-cookie@2.2.2 </tspan>
<tspan x="10" y="1162">  │ └── tunnel-agent@0.4.3 </tspan>
<tspan x="10" y="1178">  └─┬ rrule@2.0.0 </tspan>
<tspan x="10" y="1194">    └── underscore@1.8.3</tspan>
</text>
</svg>
